<?xml version="1.0" encoding="utf-8"?>
<!-- Generator: Adobe Illustrator 18.1.1, SVG Export Plug-In . SVG Version: 6.00 Build 0)  -->
<svg version="1.1" id="Layer_1" xmlns="http://www.w3.org/2000/svg" xmlns:xlink="http://www.w3.org/1999/xlink" x="0px" y="0px"
	 width="190px" height="190px" viewBox="0 0 190 190" enable-background="new 0 0 190 190" xml:space="preserve">
<path fill-rule="evenodd" clip-rule="evenodd" d="M182.3,99.4c-6.4-16.1-13-32.1-18.9-48.3c-3.6-9.6-9.3-16.1-19.7-17.6
	c0,0,2.7-19.1-13.9-19.1c-16.6,0-21.4,19-21.4,19c-10.1-3.7-23-0.1-23-0.1c-0.2-12.5-11.5-18.9-21-18.9c-9.5,0-14.2,7.3-15,19.1
	c-10.3,1.5-16.1,7.6-19.5,17c-5.8,15.7-12.4,31.1-18.1,46.8c-2,5.4-3.4,11.3-3.5,17C8,131.5,21,146.7,37.6,149.4
	c18.3,3,35.4-6.4,41.2-23.2c1.9-5.4,2.2-11.3,3.2-16.9c9.6,8.5,19.7,8.3,29.9-0.7c0,1,0,1.4,0,1.9c-1.2,15.7,6.9,29.3,21.4,36.3
	c13.1,6.3,29.7,3.5,40.5-6.9C184.6,129.7,187.9,113.5,182.3,99.4z M44.5,137.7c-13,0-23.8-10.8-23.9-23.8
	c-0.1-13.8,10.3-24.5,23.9-24.6c13.4,0,24,10.5,24.2,23.9C68.7,126.7,57.9,137.7,44.5,137.7z M96.5,103.6c-4,0-7.4-3.3-7.4-7.4
	c0-4,3.4-7.5,7.3-7.5c4,0,7.5,3.4,7.5,7.4C104,100.1,100.6,103.5,96.5,103.6z M148.2,137.7c-13.3-0.1-23.9-10.9-23.9-24.2
	c0-13.6,10.7-24.2,24.4-24.1c13.3,0.1,23.6,10.8,23.6,24.4C172.3,127,161.5,137.8,148.2,137.7z"/>
</svg>
