<?xml version="1.0" encoding="utf-8"?>
<!-- Generator: Adobe Illustrator 18.1.1, SVG Export Plug-In . SVG Version: 6.00 Build 0)  -->
<svg version="1.1" id="Layer_1" xmlns="http://www.w3.org/2000/svg" xmlns:xlink="http://www.w3.org/1999/xlink" x="0px" y="0px"
	 width="216px" height="216px" viewBox="0 0 216 216" enable-background="new 0 0 216 216" xml:space="preserve">
<path fill="#6D6E71" d="M105.8,27.3c-44,0-79.8,35.8-79.8,79.8c0,44,35.8,79.8,79.8,79.8s79.8-35.8,79.8-79.8
	C185.6,63.1,149.8,27.3,105.8,27.3z M105.8,180c-40.2,0-72.8-32.7-72.8-72.8c0-40.2,32.7-72.8,72.8-72.8c40.2,0,72.8,32.7,72.8,72.8
	C178.6,147.3,145.9,180,105.8,180z M105.8,59.3c-1.9,0-3.5,1.6-3.5,3.5V100l-40.8,40.8c-1.4,1.4-1.4,3.6,0,4.9c0.7,0.7,1.6,1,2.5,1
	c0.9,0,1.8-0.3,2.5-1l41.7-41.7c0.3-0.3,0.5-0.6,0.7-1c0,0,0.1-0.1,0.1-0.2c0.2-0.4,0.3-1,0.3-1.5V62.8
	C109.3,60.9,107.7,59.3,105.8,59.3z"/>
</svg>
