<?xml version="1.0" encoding="utf-8"?>
<!-- Generator: Adobe Illustrator 18.1.1, SVG Export Plug-In . SVG Version: 6.00 Build 0)  -->
<svg version="1.1" id="Layer_1" xmlns="http://www.w3.org/2000/svg" xmlns:xlink="http://www.w3.org/1999/xlink" x="0px" y="0px"
	 width="216px" height="216px" viewBox="0 0 216 216" enable-background="new 0 0 216 216" xml:space="preserve">
<path d="M166.6,137c-2.4,8.2-10.5,15.9-24.1,22.7c-9.4,4.7-18.3,7.4-19.6,7.7c-0.8,0.8-5.6,5.8-11.6,5.8c-8.1,0-12.8-3.9-12.8-10.7
	c0-7.7,4.1-11.1,13.2-11.1c7.7,0,11.3,4.4,12.1,5.7c3.3-0.9,29.6-8.1,34.3-23.5c5.1-16.5,2.5-39.4,0.5-47.4l-0.2-0.6
	c-1-4.2-3.2-13-9.9-20.9c-8.3-9.9-20.7-15.2-36.8-15.7c-1,0-2,0-2.9,0c-25.8,0-42.2,12-48.8,35.6c-3.2,11.5-0.2,38.3,0,40.5
	c0,0.1,0,0.1,0,0.2c0,0.3-0.2,0.5-0.5,0.5c0,0,0,0,0,0l-12.4,0c-0.3,0-0.5-0.2-0.5-0.4c-0.1-0.5-5.7-48.1,17.7-74.5
	c10.3-11.7,24.8-17.6,43-17.6h0.7c39.5,0.3,54.1,26.8,59.4,49C172.5,103,172.3,117.4,166.6,137z M80.3,107.3
	c-0.1-0.2-0.3-0.4-0.5-0.4l-16.1-0.1c-0.1,0-0.3,0-0.4,0.1c-0.1,0.1-0.2,0.2-0.2,0.4l0.1,45c0,0.1,0.1,0.3,0.1,0.4
	c0.1,0.1,0.2,0.1,0.4,0.1h0l16.2-0.4c0.2,0,0.3-0.1,0.4-0.2C89,137.2,80.7,108.5,80.3,107.3z M153.4,106.7l-15.3-0.4
	c-0.2,0-0.4,0.1-0.5,0.3c-6,10.8-1.9,35.6-1.7,36.6c0,0.2,0.1,0.3,0.3,0.4c0.1,0,0.1,0,0.2,0c0.1,0,0.2,0,0.3-0.1l17-10.8
	c0.1-0.1,0.2-0.2,0.2-0.4v-25.2C153.9,106.9,153.7,106.7,153.4,106.7z"/>
</svg>
